<svg version="1.1" style="font-family:&quot;Lucida Grande&quot;, &quot;Lucida Sans Unicode&quot;, Arial, Helvetica, sans-serif;font-size:12px;" xmlns="http://www.w3.org/2000/svg" width="1110" height="400"><desc>Created with Highcharts 4.0.3</desc><defs><clippath id="highcharts-1"><rect x="0" y="0" width="1021" height="283"></rect></clippath></defs><rect x="0" y="0" width="1110" height="400" strokeWidth="0" fill="#FFFFFF" class=" highcharts-background"></rect><g class="highcharts-button" style="cursor:default;" stroke-linecap="round" transform="translate(1076,10)"><title>Chart context menu</title><rect x="0.5" y="0.5" width="24" height="22" strokeWidth="1" fill="white" stroke="none" stroke-width="1" rx="2" ry="2"></rect><path fill="#E0E0E0" d="M 6 6.5 L 20 6.5 M 6 11.5 L 20 11.5 M 6 16.5 L 20 16.5" stroke="#666" stroke-width="3" zIndex="1"></path><text x="0" zIndex="1" style="color:black;fill:black;" y="13"></text></g><g class="highcharts-grid" zIndex="1"></g><g class="highcharts-grid" zIndex="1"><path fill="none" d="M 79 44.5 L 1100 44.5" stroke="#C0C0C0" stroke-width="1" zIndex="1" opacity="1"></path><path fill="none" d="M 79 116.5 L 1100 116.5" stroke="#C0C0C0" stroke-width="1" zIndex="1" opacity="1"></path><path fill="none" d="M 79 187.5 L 1100 187.5" stroke="#C0C0C0" stroke-width="1" zIndex="1" opacity="1"></path><path fill="none" d="M 79 257.5 L 1100 257.5" stroke="#C0C0C0" stroke-width="1" zIndex="1" opacity="1"></path><path fill="none" d="M 79 328.5 L 1100 328.5" stroke="#C0C0C0" stroke-width="1" zIndex="1" opacity="1"></path></g><g class="highcharts-axis" zIndex="2"><path fill="none" d="M 305.5 328 L 305.5 338" stroke="#C0D0E0" stroke-width="1" opacity="1"></path><path fill="none" d="M 418.5 328 L 418.5 338" stroke="#C0D0E0" stroke-width="1" opacity="1"></path><path fill="none" d="M 532.5 328 L 532.5 338" stroke="#C0D0E0" stroke-width="1" opacity="1"></path><path fill="none" d="M 645.5 328 L 645.5 338" stroke="#C0D0E0" stroke-width="1" opacity="1"></path><path fill="none" d="M 759.5 328 L 759.5 338" stroke="#C0D0E0" stroke-width="1" opacity="1"></path><path fill="none" d="M 872.5 328 L 872.5 338" stroke="#C0D0E0" stroke-width="1" opacity="1"></path><path fill="none" d="M 986.5 328 L 986.5 338" stroke="#C0D0E0" stroke-width="1" opacity="1"></path><path fill="none" d="M 1100.5 328 L 1100.5 338" stroke="#C0D0E0" stroke-width="1" opacity="1"></path><path fill="none" d="M 191.5 328 L 191.5 338" stroke="#C0D0E0" stroke-width="1" opacity="1"></path><path fill="none" d="M 78.5 328 L 78.5 338" stroke="#C0D0E0" stroke-width="1" opacity="1"></path><path fill="none" d="M 79 328.5 L 1100 328.5" stroke="#C0D0E0" stroke-width="1" zIndex="7" visibility="visible"></path></g><g class="highcharts-axis" zIndex="2"><text x="23.140625" zIndex="7" text-anchor="middle" transform="translate(0,0) rotate(270 23.140625 186.5)" class=" highcharts-yaxis-title" style="color:#707070;fill:#707070;" visibility="visible" y="186.5">CZK</text></g><g class="highcharts-series-group" zIndex="3"><g class="highcharts-series highcharts-tracker" visibility="visible" zIndex="0.1" transform="translate(79,45) scale(1 1)" style="" clip-path="url(#highcharts-1)"><rect x="31.5" y="45.5" width="50" height="105" fill="#3bb479" rx="0" ry="0" stroke="#FFFFFF" stroke-width="1"></rect><rect x="144.5" y="140.5" width="50" height="52" fill="#3bb479" rx="0" ry="0" stroke="#FFFFFF" stroke-width="1"></rect><rect x="258.5" y="254.5" width="50" height="9" fill="#3bb479" rx="0" ry="0" stroke="#FFFFFF" stroke-width="1"></rect><rect x="371.5" y="170.5" width="50" height="31" fill="#3bb479" rx="0" ry="0" stroke="#FFFFFF" stroke-width="1"></rect><rect x="485.5" y="160.5" width="50" height="36" fill="#3bb479" rx="0" ry="0" stroke="#FFFFFF" stroke-width="1"></rect><rect x="598.5" y="153.5" width="50" height="49" fill="#3bb479" rx="0" ry="0" stroke="#FFFFFF" stroke-width="1"></rect><rect x="711.5" y="191.5" width="50" height="12" fill="#3bb479" rx="0" ry="0" stroke="#FFFFFF" stroke-width="1"></rect><rect x="825.5" y="211.5" width="50" height="19" fill="#3bb479" rx="0" ry="0" stroke="#FFFFFF" stroke-width="1"></rect><rect x="938.5" y="199.5" width="50" height="14" fill="#3bb479" rx="0" ry="0" stroke="#FFFFFF" stroke-width="1"></rect></g><g class="highcharts-markers" visibility="visible" zIndex="0.1" transform="translate(79,45) scale(1 1)" clip-path="none"></g><g class="highcharts-series highcharts-tracker" visibility="visible" zIndex="0.1" transform="translate(79,45) scale(1 1)" style="" clip-path="url(#highcharts-1)"><rect x="31.5" y="150.5" width="50" height="133" fill="#4a99e3" rx="0" ry="0" stroke="#FFFFFF" stroke-width="1"></rect><rect x="144.5" y="192.5" width="50" height="91" fill="#4a99e3" rx="0" ry="0" stroke="#FFFFFF" stroke-width="1"></rect><rect x="258.5" y="263.5" width="50" height="20" fill="#4a99e3" rx="0" ry="0" stroke="#FFFFFF" stroke-width="1"></rect><rect x="371.5" y="201.5" width="50" height="82" fill="#4a99e3" rx="0" ry="0" stroke="#FFFFFF" stroke-width="1"></rect><rect x="485.5" y="196.5" width="50" height="87" fill="#4a99e3" rx="0" ry="0" stroke="#FFFFFF" stroke-width="1"></rect><rect x="598.5" y="202.5" width="50" height="81" fill="#4a99e3" rx="0" ry="0" stroke="#FFFFFF" stroke-width="1"></rect><rect x="711.5" y="203.5" width="50" height="80" fill="#4a99e3" rx="0" ry="0" stroke="#FFFFFF" stroke-width="1"></rect><rect x="825.5" y="230.5" width="50" height="53" fill="#4a99e3" rx="0" ry="0" stroke="#FFFFFF" stroke-width="1"></rect><rect x="938.5" y="213.5" width="50" height="70" fill="#4a99e3" rx="0" ry="0" stroke="#FFFFFF" stroke-width="1"></rect></g><g class="highcharts-markers" visibility="visible" zIndex="0.1" transform="translate(79,45) scale(1 1)" clip-path="none"></g></g><text x="555" text-anchor="middle" class="highcharts-title" zIndex="4" style="color:#333333;font-size:18px;fill:#333333;width:1046px;" y="25"><tspan>Money collected</tspan></text><g class="highcharts-stack-labels" visibility="visible" zIndex="6" transform="translate(79,45)"><text x="57" style="color:gray;cursor:default;font-size:11px;font-weight:bold;fill:gray;" text-anchor="middle" transform="translate(0,0)" y="39"><tspan>67 140 CZK</tspan></text><text x="170" style="color:gray;cursor:default;font-size:11px;font-weight:bold;fill:gray;" text-anchor="middle" transform="translate(0,0)" y="134"><tspan>40 360 CZK</tspan></text><text x="284" style="color:gray;cursor:default;font-size:11px;font-weight:bold;fill:gray;" text-anchor="middle" transform="translate(0,0)" y="248"><tspan>8 200 CZK</tspan></text><text x="397" style="color:gray;cursor:default;font-size:11px;font-weight:bold;fill:gray;" text-anchor="middle" transform="translate(0,0)" y="164"><tspan>31 940 CZK</tspan></text><text x="511" style="color:gray;cursor:default;font-size:11px;font-weight:bold;fill:gray;" text-anchor="middle" transform="translate(0,0)" y="154"><tspan>34 680 CZK</tspan></text><text x="624" style="color:gray;cursor:default;font-size:11px;font-weight:bold;fill:gray;" text-anchor="middle" transform="translate(0,0)" y="147"><tspan>36 820 CZK</tspan></text><text x="737" style="color:gray;cursor:default;font-size:11px;font-weight:bold;fill:gray;" text-anchor="middle" transform="translate(0,0)" y="185"><tspan>25 980 CZK</tspan></text><text x="851" style="color:gray;cursor:default;font-size:11px;font-weight:bold;fill:gray;" text-anchor="middle" transform="translate(0,0)" y="205"><tspan>20 300 CZK</tspan></text><text x="964" style="color:gray;cursor:default;font-size:11px;font-weight:bold;fill:gray;" text-anchor="middle" transform="translate(0,0)" y="193"><tspan>23 800 CZK</tspan></text></g><g class="highcharts-data-labels highcharts-tracker" visibility="visible" zIndex="6" transform="translate(79,45) scale(1 1)" opacity="1" style=""><g zIndex="1" style="cursor:default;" transform="translate(24,89)"><text x="3" zIndex="1" style="font-size:11px;color:white;text-shadow:0 0 3px black, 0 0 3px black;fill:white;" y="15"><tspan>29 440 CZK</tspan></text></g><g zIndex="1" style="cursor:default;" transform="translate(137,158)"><text x="3" zIndex="1" style="font-size:11px;color:white;text-shadow:0 0 3px black, 0 0 3px black;fill:white;" y="15"><tspan>14 660 CZK</tspan></text></g><g zIndex="1" style="cursor:default;" transform="translate(254,250)"><text x="3" zIndex="1" style="font-size:11px;color:white;text-shadow:0 0 3px black, 0 0 3px black;fill:white;" y="15"><tspan>2 600 CZK</tspan></text></g><g zIndex="1" style="cursor:default;" transform="translate(367,177)"><text x="3" zIndex="1" style="font-size:11px;color:white;text-shadow:0 0 3px black, 0 0 3px black;fill:white;" y="15"><tspan>8 840 CZK</tspan></text></g><g zIndex="1" style="cursor:default;" transform="translate(478,170)"><text x="3" zIndex="1" style="font-size:11px;color:white;text-shadow:0 0 3px black, 0 0 3px black;fill:white;" y="15"><tspan>10 180 CZK</tspan></text></g><g zIndex="1" style="cursor:default;" transform="translate(591,169)"><text x="3" zIndex="1" style="font-size:11px;color:white;text-shadow:0 0 3px black, 0 0 3px black;fill:white;" y="15"><tspan>14 020 CZK</tspan></text></g><g zIndex="1" style="cursor:default;" transform="translate(707,189)"><text x="3" zIndex="1" style="font-size:11px;color:white;text-shadow:0 0 3px black, 0 0 3px black;fill:white;" y="15"><tspan>3 480 CZK</tspan></text></g><g zIndex="1" style="cursor:default;" transform="translate(821,212)"><text x="3" zIndex="1" style="font-size:11px;color:white;text-shadow:0 0 3px black, 0 0 3px black;fill:white;" y="15"><tspan>5 400 CZK</tspan></text></g><g zIndex="1" style="cursor:default;" transform="translate(934,198)"><text x="3" zIndex="1" style="font-size:11px;color:white;text-shadow:0 0 3px black, 0 0 3px black;fill:white;" y="15"><tspan>4 100 CZK</tspan></text></g></g><g class="highcharts-data-labels highcharts-tracker" visibility="visible" zIndex="6" transform="translate(79,45) scale(1 1)" opacity="1" style=""><g zIndex="1" style="cursor:default;" transform="translate(24,208)"><text x="3" zIndex="1" style="font-size:11px;color:white;text-shadow:0 0 3px black, 0 0 3px black;fill:white;" y="15"><tspan>37 700 CZK</tspan></text></g><g zIndex="1" style="cursor:default;" transform="translate(137,229)"><text x="3" zIndex="1" style="font-size:11px;color:white;text-shadow:0 0 3px black, 0 0 3px black;fill:white;" y="15"><tspan>25 700 CZK</tspan></text></g><g zIndex="1" style="cursor:default;" transform="translate(254,265)"><text x="3" zIndex="1" style="font-size:11px;color:white;text-shadow:0 0 3px black, 0 0 3px black;fill:white;" y="15"><tspan>5 600 CZK</tspan></text></g><g zIndex="1" style="cursor:default;" transform="translate(364,234)"><text x="3" zIndex="1" style="font-size:11px;color:white;text-shadow:0 0 3px black, 0 0 3px black;fill:white;" y="15"><tspan>23 100 CZK</tspan></text></g><g zIndex="1" style="cursor:default;" transform="translate(478,231)"><text x="3" zIndex="1" style="font-size:11px;color:white;text-shadow:0 0 3px black, 0 0 3px black;fill:white;" y="15"><tspan>24 500 CZK</tspan></text></g><g zIndex="1" style="cursor:default;" transform="translate(591,234)"><text x="3" zIndex="1" style="font-size:11px;color:white;text-shadow:0 0 3px black, 0 0 3px black;fill:white;" y="15"><tspan>22 800 CZK</tspan></text></g><g zIndex="1" style="cursor:default;" transform="translate(704,235)"><text x="3" zIndex="1" style="font-size:11px;color:white;text-shadow:0 0 3px black, 0 0 3px black;fill:white;" y="15"><tspan>22 500 CZK</tspan></text></g><g zIndex="1" style="cursor:default;" transform="translate(818,248)"><text x="3" zIndex="1" style="font-size:11px;color:white;text-shadow:0 0 3px black, 0 0 3px black;fill:white;" y="15"><tspan>14 900 CZK</tspan></text></g><g zIndex="1" style="cursor:default;" transform="translate(931,240)"><text x="3" zIndex="1" style="font-size:11px;color:white;text-shadow:0 0 3px black, 0 0 3px black;fill:white;" y="15"><tspan>19 700 CZK</tspan></text></g></g><g class="highcharts-legend" zIndex="7" transform="translate(455,368)"><g zIndex="1"><g><g class="highcharts-legend-item" zIndex="1" transform="translate(8,3)"><text x="21" style="color:#333333;font-size:12px;font-weight:bold;cursor:pointer;fill:#333333;" text-anchor="start" zIndex="2" y="15">Students</text><rect x="0" y="4" width="16" height="12" zIndex="3" fill="#3bb479"></rect></g><g class="highcharts-legend-item" zIndex="1" transform="translate(100.328125,3)"><text x="21" y="15" style="color:#333333;font-size:12px;font-weight:bold;cursor:pointer;fill:#333333;" text-anchor="start" zIndex="2">Non-Students</text><rect x="0" y="4" width="16" height="12" zIndex="3" fill="#4a99e3"></rect></g></g></g></g><g class="highcharts-axis-labels highcharts-xaxis-labels" zIndex="7"><text x="135.72222222222223" text-anchor="middle" style="width:93px;color:#606060;cursor:default;font-size:11px;fill:#606060;" y="348" opacity="1"><tspan>October 2017</tspan></text><text x="249.16666666666669" text-anchor="middle" style="width:93px;color:#606060;cursor:default;font-size:11px;fill:#606060;" y="348" opacity="1"><tspan>November 2017</tspan></text><text x="362.6111111111111" text-anchor="middle" style="width:93px;color:#606060;cursor:default;font-size:11px;fill:#606060;" y="348" opacity="1"><tspan>December 2017</tspan></text><text x="476.0555555555556" text-anchor="middle" style="width:93px;color:#606060;cursor:default;font-size:11px;fill:#606060;" y="348" opacity="1"><tspan>January 2018</tspan></text><text x="589.5" text-anchor="middle" style="width:93px;color:#606060;cursor:default;font-size:11px;fill:#606060;" y="348" opacity="1"><tspan>February 2018</tspan></text><text x="702.9444444444445" text-anchor="middle" style="width:93px;color:#606060;cursor:default;font-size:11px;fill:#606060;" y="348" opacity="1"><tspan>March 2018</tspan></text><text x="816.3888888888889" text-anchor="middle" style="width:93px;color:#606060;cursor:default;font-size:11px;fill:#606060;" y="348" opacity="1"><tspan>April 2018</tspan></text><text x="929.8333333333334" text-anchor="middle" style="width:93px;color:#606060;cursor:default;font-size:11px;fill:#606060;" y="348" opacity="1"><tspan>May 2018</tspan></text><text x="1043.2777777777778" text-anchor="middle" style="width:93px;color:#606060;cursor:default;font-size:11px;fill:#606060;" y="348" opacity="1"><tspan>June 2018</tspan></text></g><g class="highcharts-axis-labels highcharts-yaxis-labels" zIndex="7"><text x="64" text-anchor="end" style="width:346px;color:#606060;cursor:default;font-size:11px;fill:#606060;" y="334" opacity="1">0</text><text x="64" text-anchor="end" style="width:346px;color:#606060;cursor:default;font-size:11px;fill:#606060;" y="263.25" opacity="1">20000</text><text x="64" text-anchor="end" style="width:346px;color:#606060;cursor:default;font-size:11px;fill:#606060;" y="192.5" opacity="1">40000</text><text x="64" text-anchor="end" style="width:346px;color:#606060;cursor:default;font-size:11px;fill:#606060;" y="121.75" opacity="1">60000</text><text x="64" text-anchor="end" style="width:346px;color:#606060;cursor:default;font-size:11px;fill:#606060;" y="51" opacity="1">80000</text></g><g class="highcharts-tooltip" zIndex="8" style="cursor:default;padding:0;white-space:nowrap;" transform="translate(0,-9999)"><path fill="none" d="M 3 0 L 13 0 C 16 0 16 0 16 3 L 16 13 C 16 16 16 16 13 16 L 3 16 C 0 16 0 16 0 13 L 0 3 C 0 0 0 0 3 0" isShadow="true" stroke="black" stroke-opacity="0.049999999999999996" stroke-width="5" transform="translate(1, 1)"></path><path fill="none" d="M 3 0 L 13 0 C 16 0 16 0 16 3 L 16 13 C 16 16 16 16 13 16 L 3 16 C 0 16 0 16 0 13 L 0 3 C 0 0 0 0 3 0" isShadow="true" stroke="black" stroke-opacity="0.09999999999999999" stroke-width="3" transform="translate(1, 1)"></path><path fill="none" d="M 3 0 L 13 0 C 16 0 16 0 16 3 L 16 13 C 16 16 16 16 13 16 L 3 16 C 0 16 0 16 0 13 L 0 3 C 0 0 0 0 3 0" isShadow="true" stroke="black" stroke-opacity="0.15" stroke-width="1" transform="translate(1, 1)"></path><path fill="rgba(249, 249, 249, .85)" d="M 3 0 L 13 0 C 16 0 16 0 16 3 L 16 13 C 16 16 16 16 13 16 L 3 16 C 0 16 0 16 0 13 L 0 3 C 0 0 0 0 3 0"></path><text x="8" zIndex="1" style="font-size:12px;color:#333333;fill:#333333;" y="21"></text></g><text x="1100" text-anchor="end" zIndex="8" style="cursor:pointer;color:#909090;font-size:9px;fill:#909090;" y="395">Highcharts.com</text></svg>
